<?xml version="1.0" standalone="no"?>
<!DOCTYPE svg PUBLIC "-//W3C//DTD SVG 20010904//EN"
 "http://www.w3.org/TR/2001/REC-SVG-20010904/DTD/svg10.dtd">
<svg version="1.0" xmlns="http://www.w3.org/2000/svg"
 width="700.000000pt" height="700.000000pt" viewBox="0 0 700.000000 700.000000"
 preserveAspectRatio="xMidYMid meet">
<metadata>
Created by potrace 1.11, written by Peter Selinger 2001-2013
</metadata>
<g transform="translate(0.000000,700.000000) scale(0.100000,-0.100000)"
fill="#000000" stroke="none">
<path d="M1706 6691 c-1 -3 -2 -46 -2 -96 l1 -90 343 0 342 0 0 -187 0 -188
-560 0 -560 0 0 40 c0 22 -3 41 -7 41 -5 1 -47 2 -95 3 -72 1 -88 -2 -89 -14
-4 -53 -3 -260 1 -261 3 -1 341 -2 752 -3 491 -1 749 2 751 9 3 9 1 714 -2
741 -1 9 -115 12 -436 11 -240 0 -437 -3 -439 -6z"/>
<path d="M2740 6316 l0 -381 727 1 c401 1 731 2 736 3 4 0 7 60 7 131 0 72 -3
130 -7 131 -5 0 -48 1 -98 2 l-90 1 3 -37 4 -37 -546 0 -545 0 0 188 1 187
542 0 541 0 1 -32 c0 -49 -6 -47 152 -44 l42 1 0 133 0 134 -735 0 -735 0 0
-381z"/>
<path d="M4373 6691 c-10 -7 -11 -744 -1 -751 5 -4 1480 -5 1498 -1 11 2 4
252 -7 259 -19 12 -178 6 -179 -6 -1 -7 -2 -23 -3 -37 l-1 -25 -562 0 -563 0
5 187 5 188 553 0 c305 0 556 -3 558 -6 2 -3 5 -20 6 -37 2 -30 3 -31 63 -34
33 -2 76 -1 95 2 l35 5 0 131 0 131 -747 0 c-411 0 -751 -3 -755 -6z"/>
<path d="M1061 5533 c0 -299 -7 -290 61 -83 17 52 52 149 79 216 27 67 49 124
49 127 0 4 -42 7 -94 7 l-95 0 0 -267z"/>
<path d="M1401 5782 c-24 -44 -102 -247 -135 -351 -85 -261 -143 -555 -162
-816 -10 -128 -10 -380 -1 -515 13 -183 20 -207 33 -113 4 32 8 60 9 63 1 3 5
23 9 45 16 79 68 291 87 355 28 91 78 241 88 265 5 11 28 70 52 130 109 278
320 651 501 882 26 35 48 65 48 68 0 3 -117 5 -260 5 -240 0 -260 -1 -269 -18z"/>
<path d="M2067 5733 c-191 -238 -388 -586 -504 -888 -59 -154 -142 -427 -143
-470 0 -5 23 31 51 80 217 379 516 739 859 1037 86 74 279 222 358 273 23 15
42 29 42 31 0 2 -137 4 -305 4 l-304 0 -54 -67z"/>
<path d="M2940 5758 c-333 -208 -687 -527 -917 -823 -72 -93 -172 -239 -168
-244 3 -2 11 2 18 11 19 24 220 182 326 257 465 327 967 540 1541 655 69 14
146 28 172 31 26 3 78 9 115 14 279 39 740 32 1043 -14 263 -40 629 -132 774
-194 l46 -20 4 22 c3 12 4 95 4 185 l-1 162 -1446 -1 -1446 0 -65 -41z"/>
<path d="M4259 5545 c-2 -1 -38 -6 -79 -10 -116 -12 -165 -17 -255 -31 -377
-57 -845 -220 -1170 -408 -33 -20 -73 -43 -90 -52 -41 -23 -244 -159 -275
-185 -20 -17 -21 -19 -5 -14 389 141 703 215 1060 251 220 22 623 22 778 -1
18 -2 57 -7 87 -9 110 -10 375 -61 525 -101 33 -9 67 -18 75 -20 107 -27 333
-106 489 -172 106 -45 395 -192 447 -227 21 -14 42 -26 45 -26 3 0 6 163 5
361 l-1 362 -95 36 c-205 80 -495 166 -625 185 -22 3 -62 11 -90 16 -49 10
-82 15 -175 25 -25 3 -61 8 -80 11 -40 6 -566 15 -571 9z"/>
<path d="M3699 4956 c-2 -2 -42 -6 -89 -10 -47 -4 -96 -8 -110 -10 -14 -3 -47
-7 -74 -11 -27 -3 -52 -8 -55 -9 -3 -2 -28 -6 -56 -10 -27 -3 -99 -17 -160
-32 -60 -14 -117 -27 -125 -29 -29 -6 -130 -36 -130 -39 0 -1 46 -2 103 -2
154 -1 388 -15 486 -29 25 -3 62 -9 81 -11 531 -75 1111 -285 1540 -558 257
-164 460 -323 660 -515 41 -39 87 -83 101 -97 l26 -25 0 399 0 399 -106 66
c-333 206 -708 358 -1091 441 -142 31 -239 48 -354 62 -33 4 -73 9 -90 11 -38
5 -552 13 -557 9z"/>
<path d="M3400 4591 c8 -5 69 -29 135 -54 228 -86 384 -161 675 -329 19 -11
93 -60 165 -108 350 -238 682 -555 947 -905 66 -87 228 -328 228 -338 0 -2 23
-44 52 -93 57 -100 170 -332 214 -441 16 -40 33 -73 38 -73 5 0 7 3 4 6 -4 3
-2 18 2 34 5 16 11 57 15 92 4 35 9 72 12 83 3 11 7 216 8 457 l3 436 -96 104
c-470 502 -1040 842 -1722 1027 -41 11 -88 23 -105 26 -35 6 -61 11 -131 25
-96 20 -229 38 -344 46 -36 2 -76 7 -90 9 -18 4 -21 3 -10 -4z"/>
<path d="M3780 4226 c0 -2 39 -37 88 -77 539 -454 965 -1072 1197 -1739 39
-112 91 -286 107 -360 5 -25 14 -63 19 -85 9 -40 33 -162 43 -220 6 -36 13
-92 21 -160 3 -27 8 -61 10 -75 8 -46 17 -194 19 -297 0 -57 3 -103 5 -103 17
0 193 237 263 355 90 152 178 341 218 466 l17 56 -37 109 c-142 411 -323 743
-594 1084 -101 127 -344 378 -471 487 -214 182 -493 364 -745 485 -58 28 -117
57 -132 65 -16 7 -28 12 -28 9z"/>
<path d="M4020 3743 c0 -3 20 -39 45 -80 116 -191 260 -513 346 -775 59 -180
124 -446 144 -588 3 -25 8 -52 10 -60 2 -8 7 -44 10 -80 4 -36 9 -73 10 -82
19 -94 26 -543 13 -718 -7 -91 -32 -297 -43 -350 -2 -14 -7 -38 -10 -55 -2
-16 -13 -73 -24 -125 -19 -94 -31 -140 -69 -272 -11 -38 -18 -68 -16 -68 13 0
205 98 273 139 46 28 86 51 88 51 2 0 9 5 16 10 7 6 57 44 112 84 55 41 127
98 159 128 l59 54 0 174 c1 158 -6 303 -18 400 -3 19 -7 58 -10 85 -4 28 -13
88 -21 135 -9 47 -18 99 -20 115 -3 17 -21 91 -40 165 -139 539 -394 1028
-750 1440 -84 98 -264 284 -264 273z"/>
<path d="M4086 3185 c2 -16 11 -71 19 -122 38 -233 49 -372 49 -643 1 -190 -5
-309 -19 -445 -5 -54 -23 -183 -31 -225 -2 -14 -7 -41 -10 -60 -3 -19 -7 -37
-9 -40 -2 -3 -6 -25 -10 -48 -10 -72 -74 -311 -116 -437 -100 -301 -253 -631
-396 -851 -14 -21 -13 -22 54 -18 86 4 163 12 233 24 30 5 70 12 89 15 19 3
37 7 40 9 3 2 22 7 41 10 19 3 76 17 125 32 50 14 97 28 106 31 28 8 132 382
164 588 4 22 8 51 10 65 28 176 39 334 39 545 0 143 -9 317 -19 385 -2 14 -7
48 -10 75 -28 247 -115 579 -222 850 -55 137 -133 297 -127 260z"/>
<path d="M3942 2617 c-128 -796 -518 -1558 -1105 -2154 -33 -34 -59 -64 -56
-67 5 -5 190 -53 239 -62 78 -13 133 -21 210 -28 114 -12 148 -13 158 -7 32
21 236 398 325 601 106 244 213 652 243 925 3 28 7 61 9 75 9 50 19 248 18
370 0 165 -16 405 -27 417 -1 2 -8 -30 -14 -70z"/>
<path d="M1117 2193 c26 -114 21 -108 120 -126 137 -25 212 -36 288 -42 39 -3
93 -8 120 -10 44 -4 34 2 -90 49 -153 59 -213 85 -351 152 -50 24 -93 44 -97
44 -3 0 2 -30 10 -67z"/>
<path d="M3610 2156 c-174 -314 -464 -676 -771 -962 -146 -135 -426 -346 -589
-443 -49 -30 -90 -58 -90 -62 0 -19 314 -186 419 -224 50 -17 43 -20 125 61
347 345 619 755 800 1209 65 164 165 489 154 500 -2 2 -23 -34 -48 -79z"/>
<path d="M3155 1861 c-389 -331 -880 -600 -1388 -762 l-69 -21 29 -31 c108
-117 289 -271 307 -260 341 197 642 447 921 764 65 73 293 380 282 379 -1 -1
-38 -31 -82 -69z"/>
<path d="M1219 1851 c10 -25 33 -81 51 -125 l33 -78 91 6 c118 9 153 13 316
36 80 11 345 71 420 94 41 13 42 15 15 16 -16 0 -100 2 -185 5 -85 2 -180 7
-210 10 -30 3 -80 7 -110 10 -30 3 -62 8 -70 10 -8 2 -42 7 -75 10 -49 5 -204
33 -277 49 -16 4 -16 1 1 -43z"/>
<path d="M2665 1753 c-239 -91 -546 -174 -775 -209 -25 -3 -53 -8 -64 -10 -10
-2 -44 -6 -75 -10 -31 -3 -63 -8 -71 -9 -9 -2 -65 -6 -125 -10 -131 -9 -154
-11 -159 -16 -6 -5 136 -217 171 -256 l28 -32 90 30 c216 70 495 195 684 306
106 62 328 209 337 224 6 11 9 11 -41 -8z"/>
</g>
</svg>
