<svg class="svg-instagram" viewBox="0 0 24 24" xmlns="http://www.w3.org/2000/svg" fill-rule="evenodd" clip-rule="evenodd" stroke-linejoin="round" stroke-miterlimit="2">
  <path d="M12.003 5.845a6.142 6.142 0 00-6.152 6.152 6.141 6.141 0 006.152 6.152 6.142 6.142 0 006.152-6.152 6.143 6.143 0 00-6.152-6.152zm0 10.152c-2.201 0-4-1.794-4-4a4.003 4.003 0 014-3.999 4.002 4.002 0 013.999 3.999c0 2.206-1.799 4-3.999 4zm7.838-10.403c0 .798-.642 1.435-1.435 1.435a1.435 1.435 0 111.435-1.435zm4.075 1.456c-.091-1.922-.53-3.625-1.939-5.027C20.575.62 18.872.181 16.95.084c-1.981-.112-7.919-.112-9.9 0-1.917.091-3.619.53-5.027 1.933C.614 3.42.181 5.123.084 7.045c-.112 1.981-.112 7.919 0 9.9.091 1.922.53 3.624 1.939 5.027 1.408 1.403 3.105 1.842 5.027 1.938 1.981.113 7.919.113 9.9 0 1.922-.091 3.625-.53 5.027-1.938 1.403-1.403 1.842-3.105 1.939-5.027.112-1.981.112-7.914 0-9.895zm-2.56 12.02a4.047 4.047 0 01-2.28 2.281c-1.58.626-5.328.482-7.073.482-1.746 0-5.499.139-7.073-.482a4.048 4.048 0 01-2.281-2.281c-.626-1.579-.482-5.327-.482-7.073 0-1.745-.139-5.498.482-7.073a4.05 4.05 0 012.281-2.28c1.579-.627 5.327-.482 7.073-.482 1.745 0 5.498-.139 7.073.482a4.048 4.048 0 012.28 2.28c.627 1.58.482 5.328.482 7.073 0 1.746.145 5.499-.482 7.073z" fill-rule="nonzero"/>
</svg>
