<svg viewBox="0 0 77 100" xmlns="http://www.w3.org/2000/svg" fill-rule="evenodd" clip-rule="evenodd" stroke-linejoin="round" stroke-miterlimit="2">
  <path d="M0 0v61.591C0 82.67 17.173 99.818 38.281 99.818c21.11 0 38.285-17.147 38.285-38.23V0H0zm74.595 1.966v59.626c0 20.025-16.258 36.26-36.312 36.26-20.056 0-36.314-16.235-36.314-36.261V1.966h72.626z" fill="#fff"/>
  <g fill="#fff">
    <path d="M43.953 21.244a50.657 50.657 0 00-21.873 9.52 57.6 57.6 0 0111.283-3.197c14.204-2.501 28.107.475 39.538 7.403V24.62a50.643 50.643 0 00-28.948-3.376"/>
    <path d="M30.336 88.891a50.47 50.47 0 0010.624-21.33 57.11 57.11 0 01-6.583 9.69 57.018 57.018 0 01-15.13 12.71 34.443 34.443 0 006.78 3.46 51.059 51.059 0 004.31-4.53"/>
    <path d="M45.113 61.144a57.133 57.133 0 01-2.866 11.355 56.795 56.795 0 01-14.112 21.642 34.631 34.631 0 008.83 1.484 50.883 50.883 0 005.472-10.807c2.856-7.84 3.657-15.928 2.676-23.674"/>
    <path d="M45.87 46.114a57.314 57.314 0 015.114 10.539 56.73 56.73 0 01.941 36.21 34.7 34.7 0 0010.123-6.647 50.438 50.438 0 00-2.99-20.247 50.498 50.498 0 00-13.189-19.855"/>
    <path d="M34.863 72.171a57.292 57.292 0 01-9.509 6.858 57.308 57.308 0 01-12.618 5.385 34.935 34.935 0 004.683 4.257c.052-.03.101-.055.151-.085 7.235-4.171 13.057-9.851 17.293-16.415"/>
    <path d="M46.818 53.695a57.2 57.2 0 011.195 11.65 56.72 56.72 0 01-8.716 30.291 34.64 34.64 0 0010.21-1.843 50.513 50.513 0 002.905-16.937 50.436 50.436 0 00-5.594-23.161"/>
    <path d="M4.244 67.421c.161.88.36 1.749.59 2.605 2.66.563 5.341.913 8.022 1.046a57.61 57.61 0 01-8.612-3.651"/>
    <path d="M42.38 39.314a57.186 57.186 0 018.415 8.158 56.755 56.755 0 0113.362 36.573 34.586 34.586 0 007.16-12.591 50.57 50.57 0 00-9.744-17.986A50.609 50.609 0 0042.38 39.314"/>
    <path d="M16.267 77.621a57.986 57.986 0 01-7.92.834 34.409 34.409 0 002.875 4.187 50.468 50.468 0 0016.326-8.219 57.435 57.435 0 01-11.28 3.198"/>
    <path d="M27.682 16.893h-8.875c-5.095 6.25-8.46 13.356-10.138 20.733a57.26 57.26 0 016.585-9.69 56.977 56.977 0 0112.428-11.043"/>
    <path d="M8.21 73.191a58.613 58.613 0 01-2.55-.512 34.564 34.564 0 001.502 3.566 50.545 50.545 0 0012.744-2.205 57.463 57.463 0 01-11.697-.849"/>
    <path d="M7.194 20.368a50.46 50.46 0 00-2.678 23.675 57.163 57.163 0 012.867-11.356 57.013 57.013 0 018.797-15.795H8.61a51.44 51.44 0 00-1.416 3.476"/>
    <path d="M3.661 16.893v7.788a56.573 56.573 0 012.771-7.788h-2.77"/>
    <path d="M29.722 31.148a57.388 57.388 0 0111.7.847c12.514 2.206 23.354 8.323 31.48 16.875V37.412a50.66 50.66 0 00-19.365-7.742 50.659 50.659 0 00-23.815 1.478"/>
    <path d="M59.657 40.862a50.661 50.661 0 00-22.885-6.746 57.41 57.41 0 0110.701 4.793 56.82 56.82 0 0124.763 28.947c.436-2.192.666-4.455.666-6.774v-9.231a50.745 50.745 0 00-13.245-10.989"/>
    <path d="M14.77 33.016a57.35 57.35 0 019.505-6.86c15.388-8.871 33.191-9.779 48.627-4.007v-5.256H31.568A50.539 50.539 0 0014.77 33.016"/>
  </g>
  <g fill="#fff">
    <path d="M72.902 11.134h-2.779v1.06H53.916V6.818h16.207v1.103h2.78V4.066H51.136v10.88h21.765v-3.812"/>
    <path d="M48.891 11.134h-2.779v1.06h-15.66V6.818h15.66v1.103h2.78V4.066H27.672v10.88h21.218v-3.812"/>
    <path d="M25.427 4.066H12.718V6.82h9.93v5.374H6.44v-1.222H3.661v3.975h21.766V4.066"/>
  </g>
</svg>
