<svg class="svg-twitter" viewBox="0 0 24 20" xmlns="http://www.w3.org/2000/svg" fill-rule="evenodd" clip-rule="evenodd" stroke-linejoin="round" stroke-miterlimit="2">
  <path d="M21.533 4.858c.015.213.015.426.015.639 0 6.503-4.949 13.995-13.995 13.995-2.786 0-5.375-.807-7.553-2.208.396.046.777.061 1.188.061a9.848 9.848 0 006.106-2.101 4.93 4.93 0 01-4.599-3.411c.305.045.61.076.929.076.442 0 .884-.061 1.295-.168A4.919 4.919 0 01.975 6.914v-.061a4.95 4.95 0 002.223.624 4.915 4.915 0 01-2.193-4.096c0-.914.244-1.752.67-2.483a13.984 13.984 0 0010.142 5.148 5.565 5.565 0 01-.122-1.127A4.917 4.917 0 0116.614 0c1.416 0 2.696.594 3.594 1.553A9.663 9.663 0 0023.33.365a4.906 4.906 0 01-2.162 2.711A9.867 9.867 0 0024 2.315a10.6 10.6 0 01-2.467 2.543z" fill-rule="nonzero"/>
</svg>
