<svg class="svg-youtube" viewBox="0 0 24 17" xmlns="http://www.w3.org/2000/svg" fill-rule="evenodd" clip-rule="evenodd" stroke-linejoin="round" stroke-miterlimit="2">
  <path d="M23.498 2.64A3.016 3.016 0 0021.377.505C19.505 0 12 0 12 0S4.495 0 2.623.505A3.016 3.016 0 00.502 2.64C0 4.524 0 8.455 0 8.455s0 3.93.502 5.814a2.97 2.97 0 002.121 2.101c1.872.505 9.377.505 9.377.505s7.505 0 9.377-.505a2.97 2.97 0 002.121-2.101C24 12.385 24 8.455 24 8.455s0-3.931-.502-5.815zM9.545 12.023V4.886l6.273 3.569-6.273 3.568z" fill-rule="nonzero"/>
</svg>
